<?xml version="1.0" encoding="utf-8"?>
<!-- Svg Vector Icons : http://www.onlinewebfonts.com/icon -->
<!DOCTYPE svg PUBLIC "-//W3C//DTD SVG 1.1//EN" "http://www.w3.org/Graphics/SVG/1.1/DTD/svg11.dtd">
<svg version="1.1" xmlns="http://www.w3.org/2000/svg" xmlns:xlink="http://www.w3.org/1999/xlink" x="0px" y="0px" viewBox="0 0 1000 1000" enable-background="new 0 0 1000 1000" xml:space="preserve" width="25" height="25" fill="#FF909B">
<metadata> Svg Vector Icons : http://www.onlinewebfonts.com/icon </metadata>
<g><g transform="translate(0.000000,511.000000) scale(0.100000,-0.100000)"><path d="M3285.3,4577.9L2851,4145.9v-141.8v-141.8h135h135V2557.2V1252H2115.1H1107L674.9,820L240.6,385.7V273.1c0-63,11.3-126,27-141.8c15.7-15.7,81-27,146.3-27h119.3v-2403.3c0-2041,4.5-2410.1,31.5-2448.3C596.2-4790,668.2-4790,5000-4790c4331.8,0,4403.8,0,4435.3,42.8c27,38.2,31.5,407.3,31.5,2448.3V104.4h123.8c141.8,0,168.8,29.2,168.8,182.3c0,94.5-6.8,103.5-432.1,531.1L8895.2,1252H7887.1H6879v1305.2v1305.2h135h135v141.8v141.8l-434.3,432.1L6280.4,5010H5000H3719.6L3285.3,4577.9z M6293.9,1983.4v-1879h1293.9h1293.9v-2014v-2014H7160.3H5438.8v855.1v855.1H5000h-438.8v-855.1v-855.1H2839.7H1118.2v2014v2014h1293.9h1293.9v1879v1879H5000h1293.9V1983.4z"/><path d="M4743.5,2948.7c-288-76.5-519.8-270-648.1-542.3c-65.3-135-81-198-92.3-355.5c-27-436.6,180-789.9,580.6-985.6c139.5-69.8,157.5-72,416.3-72c263.3,0,274.5,2.3,427.6,76.5c636.8,312.8,769.6,1138.6,261,1636C5447.8,2942,5074.3,3038.7,4743.5,2948.7z M5110.3,2642.7c27-38.3,36-108,36-281.3v-231.8H5378c267.8,0,330.8-27,330.8-139.5c0-139.5-33.8-153-420.8-153c-456.8,0-434.3-22.5-434.3,432.1c0,285.8,6.7,346.5,38.3,382.6C4943.7,2710.2,5067.5,2705.7,5110.3,2642.7z"/><path d="M1680.8-1054.5v-573.8l434.3,4.5l432.1,6.8l6.7,569.3l4.5,567.1h-438.8h-438.8V-1054.5z"/><path d="M3121-1054.5v-573.8l434.3,4.5l432.1,6.8l6.7,569.3l4.5,567.1h-438.8H3121V-1054.5z"/><path d="M4561.2-1054.5v-573.8l434.3,4.5l432.1,6.8l6.7,569.3l4.5,567.1H5000h-438.8V-1054.5z"/><path d="M6001.4-1054.5v-573.8l434.3,4.5l432.1,6.8l6.8,569.3l4.5,567.1h-438.8h-438.8V-1054.5z"/><path d="M7441.6-1054.5v-573.8l434.3,4.5l432.1,6.8l6.7,569.3l4.5,567.1h-438.8h-438.8V-1054.5z"/><path d="M6012.6-2217.9c-6.8-18-9-279-6.8-580.6l6.8-551.3h427.6h427.5v573.8v573.8l-423,6.7C6116.1-2190.9,6019.4-2195.4,6012.6-2217.9z"/><path d="M1685.3-2780.5l6.7-569.3h427.6h427.5l6.7,569.3l4.5,567.1h-438.8h-438.8L1685.3-2780.5z"/><path d="M3125.5-2780.5l6.7-569.3h427.6h427.6l6.7,569.3l4.5,567.1h-438.8H3121L3125.5-2780.5z"/><path d="M7446.1-2780.5l6.7-569.3h427.6h427.6l6.7,569.3l4.5,567.1h-438.8h-438.8L7446.1-2780.5z"/></g></g>
</svg>